<svg id="Ebene_1" data-name="Ebene 1" xmlns="http://www.w3.org/2000/svg" viewBox="0 0 309.87 62.66"><defs><style>.cls-1{fill:#010101;}</style></defs><title>selviilogo_3</title><path class="cls-1" d="M12.38,52.22a34.53,34.53,0,0,0,2.81,2.91,20.12,20.12,0,0,0,3.53,2.63,19,19,0,0,0,4.38,1.88,18.41,18.41,0,0,0,5.27.71c3.93,0,7-.89,9.2-2.68a8.81,8.81,0,0,0,3.31-7.23,8.22,8.22,0,0,0-3.75-7.37,32.51,32.51,0,0,0-10.81-4,33,33,0,0,1-7-2.23,19.81,19.81,0,0,1-5.41-3.58A15.19,15.19,0,0,1,9.13,21.87a15.84,15.84,0,0,1,1.26-6.26,14.41,14.41,0,0,1,3.75-5.18,18.71,18.71,0,0,1,6.25-3.57,25.77,25.77,0,0,1,8.67-1.34,26.73,26.73,0,0,1,7.55.94A23.07,23.07,0,0,1,42,8.81a16,16,0,0,1,3.57,2.77c.9.95,1.58,1.72,2.06,2.32L42,19.17a22.82,22.82,0,0,0-1.61-1.65,14.77,14.77,0,0,0-2.72-2,16.83,16.83,0,0,0-8.89-2.33,14.13,14.13,0,0,0-4.91.76,10.24,10.24,0,0,0-3.4,2,7.38,7.38,0,0,0-2,2.72,7.94,7.94,0,0,0-.63,3,7.23,7.23,0,0,0,.94,3.8,8.88,8.88,0,0,0,2.72,2.77,17.16,17.16,0,0,0,4.43,2.05q2.63.86,6,1.65A47.51,47.51,0,0,1,38.42,34a20.27,20.27,0,0,1,5.68,3.49,15.87,15.87,0,0,1,4,5.36,18.17,18.17,0,0,1,1.47,7.73A15.52,15.52,0,0,1,48,57.63a17.45,17.45,0,0,1-4.43,5.59,20.13,20.13,0,0,1-6.65,3.66,26.05,26.05,0,0,1-8.31,1.29,27.41,27.41,0,0,1-7.64-1,30.67,30.67,0,0,1-6.25-2.5,26.13,26.13,0,0,1-4.91-3.35A24.05,24.05,0,0,1,6.34,57.7Z" transform="translate(-6.34 -5.52)"/><path class="cls-1" d="M74.47,7.11H112V14.7H83.05V32h21.79v7.69H83.05V59h31.08v7.7H74.47Z" transform="translate(-6.34 -5.52)"/><path class="cls-1" d="M137.45,7.11H146v52h31v7.6H137.45Z" transform="translate(-6.34 -5.52)"/><path class="cls-1" d="M185.07,7.11h9.55l18.14,49,18.13-49h9l-23,59.59h-8.76Z" transform="translate(-6.34 -5.52)"/><path class="cls-1" d="M265.74,7.11h8.57V66.7h-8.57Z" transform="translate(-6.34 -5.52)"/><path class="cls-1" d="M307.63,7.11h8.58V66.7h-8.58Z" transform="translate(-6.34 -5.52)"/></svg>